<?xml version="1.0" encoding="UTF-8" standalone="no"?>
<!-- Created with Inkscape (http://www.inkscape.org/) -->

<svg
   xmlns:dc="http://purl.org/dc/elements/1.1/"
   xmlns:cc="http://creativecommons.org/ns#"
   xmlns:rdf="http://www.w3.org/1999/02/22-rdf-syntax-ns#"
   xmlns:svg="http://www.w3.org/2000/svg"
   xmlns="http://www.w3.org/2000/svg"
   xmlns:xlink="http://www.w3.org/1999/xlink"
   xmlns:sodipodi="http://sodipodi.sourceforge.net/DTD/sodipodi-0.dtd"
   xmlns:inkscape="http://www.inkscape.org/namespaces/inkscape"
   width="1500"
   height="1000"
   viewBox="0 0 396.87497 264.58334"
   version="1.1"
   id="svg888"
   inkscape:version="0.92.2 (5c3e80d, 2017-08-06)"
   sodipodi:docname="logo_numermark.svg">
  <defs
     id="defs882">
    <linearGradient
       gradientTransform="matrix(0.63789237,0,0,0.68271254,108.04275,142.61682)"
       gradientUnits="userSpaceOnUse"
       y2="32.416656"
       x2="433.90018"
       y1="32.416656"
       x1="95.266487"
       id="linearGradient886"
       xlink:href="#linearGradient985"
       inkscape:collect="always" />
    <linearGradient
       inkscape:collect="always"
       id="linearGradient985">
      <stop
         id="stop983"
         offset="0"
         style="stop-color:#2145ff;stop-opacity:1" />
      <stop
         id="stop981"
         offset="1"
         style="stop-color:#25fffa;stop-opacity:1" />
    </linearGradient>
  </defs>
  <sodipodi:namedview
     id="base"
     pagecolor="#212121"
     bordercolor="#666666"
     borderopacity="1.0"
     inkscape:pageopacity="0"
     inkscape:pageshadow="2"
     inkscape:zoom="0.24748737"
     inkscape:cx="1017.3997"
     inkscape:cy="64.374728"
     inkscape:document-units="mm"
     inkscape:current-layer="g855"
     showgrid="false"
     units="px"
     inkscape:window-width="2736"
     inkscape:window-height="1714"
     inkscape:window-x="-12"
     inkscape:window-y="-12"
     inkscape:window-maximized="1" />
  <metadata
     id="metadata885">
    <rdf:RDF>
      <cc:Work
         rdf:about="">
        <dc:format>image/svg+xml</dc:format>
        <dc:type
           rdf:resource="http://purl.org/dc/dcmitype/StillImage" />
        <dc:title />
      </cc:Work>
    </rdf:RDF>
  </metadata>
  <g
     inkscape:label="Layer 1"
     inkscape:groupmode="layer"
     id="layer1"
     transform="translate(0,-32.41665)">
    <g
       id="g855"
       transform="translate(-8.6449098,-8.0450827e-6)">
      <path
         inkscape:connector-curvature="0"
         id="path1037"
         d=""
         style="fill:#000000;stroke-width:0.10967456" />
      <path
         sodipodi:nodetypes="ssscccccsccccccccscccccssscccs"
         inkscape:connector-curvature="0"
         id="path828"
         d="m 213.35968,207.83896 c 0,-34.27537 -0.0355,-62.31885 -0.0788,-62.31885 -0.0434,0 -5.94095,0.81674 -13.10579,1.81498 -7.16485,0.99823 -13.08272,1.75013 -13.15084,1.67086 -0.0681,-0.0793 -0.78523,-1.81046 -1.59357,-3.84711 -1.28023,-3.22559 -8.00975,-20.10464 -14.18738,-35.58497 -1.09029,-2.7321 -2.08322,-5.22347 -2.20654,-5.53638 l -0.22421,-0.56894 20.12169,-11.292086 c 27.92635,-15.671992 42.98473,-24.053865 51.72368,-28.790703 l 7.46708,-4.04742 0.63415,0.543669 c 2.29997,1.9718 7.91085,3.403035 16.83664,4.29473 4.59993,0.459522 17.84723,0.459522 22.44717,0 8.92577,-0.891695 14.53664,-2.32293 16.83662,-4.29473 l 0.63416,-0.543669 7.46707,4.047233 c 8.63222,4.678781 23.35493,12.875339 51.72278,28.795616 l 20.12081,11.29195 -0.22333,0.56664 c -0.12282,0.31165 -1.11535,2.80199 -2.20562,5.53409 -6.17765,15.48033 -12.90715,32.35938 -14.18738,35.58497 -0.80835,2.03665 -1.52548,3.76785 -1.59359,3.84711 -0.0681,0.0793 -5.98598,-0.67263 -13.15083,-1.67086 -7.16483,-0.99824 -13.06245,-1.81498 -13.1058,-1.81498 -0.0433,0 -0.0788,28.04348 -0.0788,62.31885 v 62.31884 h -63.45967 -63.45966 z"
         style="fill:url(#linearGradient886);fill-opacity:1;stroke:#ffffff;stroke-width:0.76772183;stroke-miterlimit:4;stroke-dasharray:none;stroke-opacity:1" />
      <g
         aria-label="1"
         style="font-style:normal;font-variant:normal;font-weight:normal;font-stretch:normal;font-size:290.15618896px;line-height:1.25;font-family:'open sans';-inkscape-font-specification:'open sans';letter-spacing:0px;word-spacing:0px;fill:#ffffff;fill-opacity:0.94117647;stroke:none;stroke-width:7.25390434"
         id="text829"
         transform="translate(-17.991672,1.0000001e-6)">
        <path
           d="M 121.51641,268.27481 H 98.564601 V 120.64652 q 0,-18.41812 1.133422,-34.85275 -2.975234,2.975234 -6.658858,6.233824 -3.683623,3.25859 -33.719322,27.627176 L 46.852194,103.5035 101.68151,61.141828 h 19.8349 z"
           style="font-style:normal;font-variant:normal;font-weight:normal;font-stretch:normal;font-family:'open sans';-inkscape-font-specification:'open sans';fill:#ffffff;fill-opacity:0.94117647;stroke-width:7.25390434"
           id="path842"
           inkscape:connector-curvature="0" />
      </g>
    </g>
  </g>
</svg>
